<svg id="Capa_1" enable-background="new 0 0 511.978 511.978" height="512" viewBox="0 0 511.978 511.978" width="512" xmlns="http://www.w3.org/2000/svg"><g><path d="m310.666 51.867 40.049 40.027 54.697 14.639 14.671 54.689 40.049 40.027-14.639 54.697 14.67 54.689-40.026 40.05-14.64 54.697-54.689 14.67-40.027 40.05-54.697-14.64-54.689 14.671-40.049-40.027-54.697-14.639-14.671-54.689-40.049-40.027 14.639-54.697-14.67-54.689 40.026-40.05 14.64-54.697 54.689-14.67 40.027-40.05 54.697 14.64z" fill="#ffe477"/><g><path d="m241.031 0h30v35.152h-30z" fill="#ffb655"/></g><path d="m445.493 255.946 14.639-54.697-40.049-40.027-14.671-54.689-54.697-14.639-40.049-40.027-54.635 14.656v378.954l.053-.015 54.697 14.64 40.027-40.05 54.689-14.67 14.64-54.697 40.026-40.05z" fill="#ffda44"/><circle cx="255.986" cy="255.988" fill="#ffb655" r="136.57"/><path d="m256.031 392.582c60.33.018 115.543-40.237 131.882-101.285 19.501-72.861-23.756-147.735-96.617-167.236-11.784-3.154-23.619-4.657-35.265-4.668z" fill="#ff7037"/><g><path d="m412.883 52.435h63.437v30h-63.437z" fill="#ffda44" transform="matrix(.707 -.707 .707 .707 82.537 334.132)"/></g><g><g><path d="m476.825 241.03h35.152v30h-35.152z" fill="#ff7037"/></g></g><g><path d="m429.543 412.883h30v63.437h-30z" fill="#ffda44" transform="matrix(.707 -.707 .707 .707 -184.177 444.56)"/></g><g><g><path d="m240.948 476.826h30v35.152h-30z" fill="#ffb655"/></g></g><g><g><path d="m256.072 0h14.959v35.152h-14.959z" fill="#ff7037"/></g></g><g><path d="m256.031 476.826h14.959v35.152h-14.959z" fill="#ff7037"/></g><g><path d="m35.658 429.543h63.437v30h-63.437z" fill="#ffe477" transform="matrix(.707 -.707 .707 .707 -294.605 177.846)"/></g><g><path d="m0 240.947h35.152v30h-35.152z" fill="#ffb655"/></g><g><path d="m52.435 35.658h30v63.436h-30z" fill="#ffe477" transform="matrix(.707 -.707 .707 .707 -27.891 67.418)"/></g></g></svg>