<svg id="Capa_1" enable-background="new 0 0 512 512" height="512" viewBox="0 0 512 512" width="512" xmlns="http://www.w3.org/2000/svg"><g><path d="m167.843 220.811-89.539-142.507 143.283 90.026-3.529 49.728z" fill="#ff8e8e"/><path d="m291.189 167.843 142.507-89.539-90.026 143.283-49.728-3.529z" fill="#ff5b5b"/><path d="m344.157 291.189 89.539 142.507-143.283-90.026 3.529-49.728z" fill="#ff5b5b"/><path d="m220.811 344.157-142.507 89.539 90.026-143.283 49.728 3.529z" fill="#ff8e8e"/><g fill="#ff5b5b"><path d="m208.424 208.424 47.576-208.424 47.576 208.424z"/><path d="m303.576 303.576-47.576 208.424-47.576-208.424z"/><path d="m208.424 303.576-208.424-47.576 208.424-47.576z"/></g><path d="m303.576 208.424 208.424 47.576-208.424 47.576z" fill="#ff3939"/><path d="m256 303.576v208.424l47.576-208.424z" fill="#ff3939"/><g><circle cx="256" cy="256" fill="#ff2828" r="67.282"/></g><g><path d="m303.576 208.424-47.576-208.424v208.424z" fill="#ff3939"/><path d="m256 188.718c37.159 0 67.282 30.123 67.282 67.282s-30.123 67.282-67.282 67.282z" fill="#d20000"/></g></g></svg>