<svg id="Capa_1" enable-background="new 0 0 512 512" height="512" viewBox="0 0 512 512" width="512" xmlns="http://www.w3.org/2000/svg"><g><path d="m481.5 341.813-7.766-28.978-60.988 16.342-31.318-18.082 32.011-8.577-7.764-28.978-60.989 16.342-44.452-25.664c.494-2.667.766-5.411.766-8.218s-.271-5.552-.766-8.218l44.452-25.664 60.989 16.342 7.764-28.978-32.011-8.577 31.32-18.083 60.988 16.342 7.764-28.978-32.01-8.577 35.712-20.619-15-25.98-35.711 20.618 8.577-32.01-28.979-7.765-16.342 60.988-31.318 18.082 8.577-32.01-28.979-7.765-16.342 60.989-44.473 25.676c-4.155-3.556-8.959-6.37-14.213-8.233v-51.327l44.646-44.646-21.213-21.213-23.432 23.434v-36.167l44.646-44.646-21.213-21.213-23.433 23.433v-41.235h-30v41.235l-23.434-23.434-21.213 21.213 44.647 44.647v36.167l-23.434-23.434-21.213 21.213 44.647 44.646v51.327c-5.254 1.863-10.058 4.677-14.213 8.233l-44.473-25.676-16.342-60.989-28.979 7.765 8.577 32.01-31.32-18.083-16.342-60.988-28.979 7.765 8.577 32.01-35.708-20.617-15 25.98 35.711 20.618-32.011 8.578 7.766 28.978 60.988-16.342 31.321 18.083-32.011 8.577 7.764 28.978 60.989-16.342 44.452 25.664c-.496 2.666-.767 5.41-.767 8.218s.271 5.552.766 8.218l-44.452 25.664-60.989-16.342-7.764 28.978 32.011 8.577-31.321 18.083-60.989-16.341-7.764 28.978 32.011 8.577-35.711 20.618 15 25.98 35.711-20.618-8.577 32.012 28.979 7.764 16.34-60.988 31.319-18.082-8.577 32.01 28.979 7.765 16.342-60.989 44.473-25.676c4.155 3.556 8.959 6.37 14.213 8.233v51.327l-44.646 44.646 21.213 21.213 23.433-23.435v36.164l-44.646 44.647 21.213 21.213 23.433-23.433v41.237h30v-41.238l23.435 23.434 21.213-21.214-44.648-44.646v-36.163l23.434 23.434 21.213-21.213-44.647-44.647v-51.327c5.254-1.863 10.058-4.677 14.213-8.233l44.473 25.676 16.342 60.989 28.979-7.765-8.577-32.01 31.317 18.081 16.342 60.989 28.979-7.765-8.577-32.01 35.712 20.618 15-25.98-35.713-20.619zm-210.5-85.813c0 8.271-6.729 15-15 15s-15-6.729-15-15 6.729-15 15-15 15 6.729 15 15z" fill="#beebfa"/><path d="m481.5 341.813-7.766-28.978-60.988 16.342-31.318-18.082 32.011-8.577-7.764-28.978-60.989 16.342-44.452-25.664c.494-2.667.766-5.411.766-8.218s-.271-5.552-.766-8.218l44.452-25.664 60.989 16.342 7.764-28.978-32.011-8.577 31.32-18.083 60.988 16.342 7.764-28.978-32.01-8.577 35.712-20.619-15-25.98-35.711 20.618 8.577-32.01-28.979-7.765-16.342 60.988-31.318 18.082 8.577-32.01-28.979-7.765-16.342 60.989-44.473 25.676c-4.155-3.556-8.959-6.37-14.213-8.233v-51.327l44.646-44.646-21.213-21.213-23.432 23.434v-36.167l44.646-44.646-21.213-21.213-23.433 23.433v-41.235h-15v241c8.271 0 15 6.729 15 15s-6.729 15-15 15v241h15v-41.238l23.435 23.434 21.213-21.214-44.648-44.646v-36.163l23.434 23.434 21.213-21.213-44.647-44.647v-51.327c5.254-1.863 10.058-4.677 14.213-8.233l44.473 25.676 16.342 60.989 28.979-7.765-8.577-32.01 31.317 18.081 16.342 60.989 28.979-7.765-8.577-32.01 35.712 20.618 15-25.98-35.713-20.619z" fill="#9ee2f8"/></g></svg>