<svg id="Capa_1" enable-background="new 0 0 511.102 511.102" height="512" viewBox="0 0 511.102 511.102" width="512" xmlns="http://www.w3.org/2000/svg"><g><path d="m210.594 0c-63.199 0-121.028 22.953-165.637 60.962 96.544 12.27 171.185 94.713 171.185 194.589s-74.641 182.319-171.185 194.589c44.609 38.009 102.438 60.962 165.637 60.962 141.137 0 255.551-114.414 255.551-255.551s-114.415-255.551-255.551-255.551z" fill="#fff5f5"/><path d="m255.551 3.945v503.211c119.697-21.244 210.594-125.808 210.594-251.606s-90.897-230.361-210.594-251.605z" fill="#ebe1dc"/><circle cx="353.487" cy="209.821" fill="#c8beb9" r="38.369"/><circle cx="255.551" cy="412.034" fill="#ebe1dc" r="31.871"/><path d="m255.551 380.163c17.602 0 31.871 14.269 31.871 31.871s-14.269 31.871-31.871 31.871z" fill="#c8beb9"/></g></svg>