<svg id="Capa_1" enable-background="new 0 0 512 512" height="512" viewBox="0 0 512 512" width="512" xmlns="http://www.w3.org/2000/svg"><g><path d="m200.333 0 46.488 26.84h53.679l26.84 46.487 46.487 26.84v53.679l26.84 46.487-26.84 46.488v53.679l-46.487 26.84-26.84 46.487h-53.679l-46.488 26.84-46.487-26.84h-53.679l-26.84-46.487-46.487-26.84v-53.679l-26.84-46.488 26.84-46.487v-53.679l46.487-26.84 26.84-46.487h53.679z" fill="#ffe477"/><path d="m373.827 153.846v-53.679l-46.488-26.84-26.839-46.487h-53.679l-46.488-26.84v400.667l46.488-26.84h53.679l26.839-46.487 46.488-26.84v-53.679l26.84-46.488z" fill="#ffda44"/><circle cx="200.289" cy="200.333" fill="#ffb655" r="143.779"/><path d="m200.289 56.554c79.407 0 143.779 64.372 143.779 143.779s-64.372 143.779-143.779 143.779z" fill="#ff7037"/><circle cx="330.5" cy="330.5" fill="#fff5f5" r="181.5"/><path d="m330.5 149c100.24 0 181.5 81.26 181.5 181.5s-81.26 181.5-181.5 181.5z" fill="#ebe1dc"/><circle cx="255.645" cy="286.287" fill="#ebe1dc" r="44.213"/><g fill="#c8beb9"><circle cx="437.156" cy="319.829" r="27.302"/><path d="m372.766 400.667h30v30h-30z"/></g></g></svg>