<svg id="Capa_1" enable-background="new 0 0 512.006 512.006" height="512" viewBox="0 0 512.006 512.006" width="512" xmlns="http://www.w3.org/2000/svg"><g><g><g><path d="m134.099 147.748h430.317v30h-430.317z" fill="#ff5b5b" transform="matrix(.707 -.707 .707 .707 -12.785 294.63)"/></g></g><g><g><path d="m221.474 332.151h30v133.282h-30z" fill="#ff5b5b" transform="matrix(.707 -.707 .707 .707 -212.727 284.016)"/></g></g><g><path d="m46.57 383.792h133.282v30h-133.282z" fill="#ff8e8e" transform="matrix(.707 -.707 .707 .707 -248.83 196.856)"/></g><g><path d="m99.676 208.281h30v137.426h-30z" fill="#ff8e8e" transform="matrix(.707 -.707 .707 .707 -162.277 162.218)"/></g><path d="m106.256 122.643h294.896v30h-294.896z" fill="#ff5b5b" transform="matrix(.463 -.886 .886 .463 14.244 298.795)"/><path d="m220.705 245.926h301.04v30h-301.04z" fill="#ff5b5b" transform="matrix(.89 -.456 .456 .89 -78.163 198.15)"/><g><path d="m349.685 337.161-142.349-32.494-32.493-142.349-32.494 142.349-142.349 32.494 142.349 32.493 32.494 142.349 32.493-142.349z" fill="#ff5b5b"/></g><g><path d="m174.843 512.003 32.493-142.349 142.349-32.493-142.349-32.494-32.493-142.349z" fill="#ff3939"/></g></g></svg>