<svg id="Capa_1" enable-background="new 0 0 512 512" height="512" viewBox="0 0 512 512" width="512" xmlns="http://www.w3.org/2000/svg"><g><path d="m330 424.574c0-35.346-38.654-64-74-64s-74 28.654-74 64l-117.64 10h-64.36c0-141.385 114.615-256 256-256s256 114.615 256 256h-64.36z" fill="#ff5b5b"/><path d="m256 178.574v182c35.346 0 74 28.654 74 64l117.64 10h64.36c0-141.385-114.615-256-256-256z" fill="#ff3939"/><path d="m256 242.934c-105.84 0-191.64 85.8-191.64 191.64h127.64c0-35.346 28.654-64 64-64s64 28.654 64 64h127.64c0-105.84-85.8-191.64-191.64-191.64z" fill="#9ee2f8"/><path d="m256 242.934v127.64c35.346 0 64 28.654 64 64h127.64c0-105.84-85.8-191.64-191.64-191.64z" fill="#5ecef4"/><path d="m256 306.574c-70.692 0-128 57.308-128 128h64c0-35.346 28.654-64 64-64s64 28.654 64 64h64c0-70.692-57.308-128-128-128z" fill="#ffe477"/><path d="m447.133 146.714h30v30h-30z" fill="#9ee2f8"/><path d="m55.283 77.426h30v30h-30z" fill="#beebfa"/><path d="m405.425 107.426h30v30h-30z" fill="#9ee2f8"/><path d="m256 306.574v64c35.346 0 64 28.654 64 64h64c0-70.692-57.308-128-128-128z" fill="#ffda44"/></g></svg>