<svg id="Capa_1" enable-background="new 0 0 512 512" height="512" viewBox="0 0 512 512" width="512" xmlns="http://www.w3.org/2000/svg"><g><path d="m190.847 294.325-78.511 98.511v15.664h143.664l-33 78 167.517-136.384h-95.517l44.895-54.896z" fill="#ffe477"/><path d="m256 294.717v164.916l134.517-109.517h-95.517l44.895-54.896z" fill="#ffda44"/><path d="m458.16 188.334c1.32-5.493 2.038-11.22 2.038-17.118 0-40.325-32.69-73.015-73.015-73.015-8.832 0-17.297 1.569-25.134 4.442-12.239-44.473-52.965-77.143-101.327-77.143-58.041 0-105.093 47.052-105.093 105.093 0 .481.012.959.018 1.439-9.982-4.978-21.232-7.794-33.144-7.794-41.081 0-74.384 33.303-74.384 74.384 0 2.016.103 4.006.261 5.981-26.889 1.012-48.38 23.117-48.38 50.253 0 27.78 22.52 50.301 50.301 50.301h403.187c32.316 0 58.513-26.197 58.513-58.513-.001-30.741-23.712-55.927-53.841-58.31z" fill="#0d91bd"/><path d="m458.16 188.334c1.32-5.493 2.038-11.22 2.038-17.118 0-40.325-32.69-73.015-73.015-73.015-8.832 0-17.297 1.569-25.134 4.442-12.239-44.473-52.965-77.143-101.327-77.143-1.583 0-3.156.042-4.722.111v279.546h197.487c32.316 0 58.513-26.197 58.513-58.513 0-30.741-23.711-55.927-53.84-58.31z" fill="#09607d"/><path d="m378.323 202.624h-30c0-9.954-8.099-18.053-18.053-18.053-9.955 0-18.053 8.099-18.053 18.053h-30c0-26.497 21.557-48.053 48.053-48.053s48.053 21.557 48.053 48.053z" fill="#04303e"/><path d="m235.965 235.678h-30c0-9.955-8.099-18.053-18.053-18.053s-18.053 8.099-18.053 18.053h-30c0-26.497 21.556-48.053 48.053-48.053s48.053 21.556 48.053 48.053z" fill="#09607d"/></g></svg>