<svg id="Capa_1" enable-background="new 0 0 512 512" height="512" viewBox="0 0 512 512" width="512" xmlns="http://www.w3.org/2000/svg"><g><g><path d="m171.833 20.85 39.874 23.021h46.043l23.021 39.874 39.874 23.021v46.043l23.022 39.874-23.022 39.874v46.043l-39.874 23.021-23.021 39.874h-46.043l-39.874 23.021-39.874-23.021h-46.042l-23.022-39.874-39.874-23.021v-46.043l-23.021-39.874 23.021-39.874v-46.043l39.874-23.021 23.022-39.874h46.042z" fill="#ffe477"/><path d="m320.645 152.809v-46.043l-39.874-23.021-23.021-39.874h-46.043l-39.874-23.021v343.666l39.874-23.021h46.043l23.021-39.874 39.874-23.021v-46.043l23.022-39.874z" fill="#ffda44"/><circle cx="171.796" cy="192.683" fill="#ffb655" r="123.325"/><path d="m171.796 69.358c68.11 0 123.325 55.214 123.325 123.325s-55.214 123.325-123.325 123.325z" fill="#ff7037"/></g><path d="m461.556 381.696c1.237-5.147 1.909-10.513 1.909-16.039 0-37.782-30.628-68.41-68.41-68.41-8.275 0-16.206 1.47-23.548 4.162-11.468-41.668-49.625-72.277-94.937-72.277-54.381 0-98.465 44.084-98.465 98.465 0 .451.011.899.017 1.348-9.353-4.664-19.893-7.302-31.054-7.302-38.49 0-69.693 31.203-69.693 69.693 0 1.888.097 3.753.244 5.604-25.193.948-45.328 21.658-45.328 47.083 0 26.028 21.1 47.128 47.128 47.128h377.758c30.277 0 54.822-24.545 54.822-54.822.001-28.803-22.215-52.4-50.443-54.633z" fill="#beebfa"/><path d="m461.556 381.696c1.237-5.147 1.909-10.513 1.909-16.039 0-37.782-30.628-68.41-68.41-68.41-8.275 0-16.206 1.47-23.548 4.162-11.468-41.668-49.625-72.277-94.938-72.277-1.483 0-2.957.039-4.424.104v261.914h185.032c30.277 0 54.822-24.545 54.822-54.822.001-28.802-22.215-52.399-50.443-54.632z" fill="#9ee2f8"/><g><path d="m397.7 399.305h-30c0-8.805-7.164-15.968-15.968-15.968s-15.968 7.164-15.968 15.968h-30c0-25.347 20.621-45.968 45.968-45.968s45.968 20.621 45.968 45.968z" fill="#5ecef4"/></g><g><path d="m244.321 430.273h-30c0-8.805-7.164-15.968-15.968-15.968-8.805 0-15.969 7.163-15.969 15.968h-30c0-25.347 20.622-45.968 45.969-45.968s45.968 20.621 45.968 45.968z" fill="#7ed8f6"/></g></g></svg>