<svg id="Capa_1" enable-background="new 0 0 512 512" height="512" viewBox="0 0 512 512" width="512" xmlns="http://www.w3.org/2000/svg"><g><circle cx="189.833" cy="189.833" fill="#ffb655" r="97.766"/><path d="m189.833 92.067c53.995 0 97.766 43.772 97.766 97.766s-43.771 97.767-97.766 97.767z" fill="#ff7037"/><g><path d="m174.833 0h30v62.067h-30z" fill="#ffe477"/></g><g><path d="m189.833 0h15v62.067h-15z" fill="#ffda44"/></g><g><path d="m271.088 62.545h62.067v30h-62.067z" fill="#ffda44" transform="matrix(.707 -.707 .707 .707 33.657 236.345)"/></g><g><path d="m46.511 287.122h62.068v30h-62.068z" fill="#ffe477" transform="matrix(.707 -.707 .707 .707 -190.92 143.322)"/></g><g><path d="m0 174.833h62.066v30h-62.066z" fill="#ffe477"/></g><g><path d="m62.545 46.511h30v62.067h-30z" fill="#ffe477" transform="matrix(.707 -.707 .707 .707 -32.12 77.546)"/></g><path d="m444.225 227.286c-2.828 0-5.609.193-8.346.53-3.917-50.444-46.06-90.166-97.51-90.166-51.458 0-93.607 39.735-97.512 90.191-2.8-.352-5.647-.555-8.543-.555-37.431 0-67.775 30.344-67.775 67.775s30.344 67.775 67.775 67.775h211.91c37.431 0 67.775-30.344 67.775-67.775s-30.343-67.775-67.774-67.775z" fill="#beebfa"/><g><path d="m258.324 392.837h30v83.461h-30z" fill="#beebfa"/></g><g><path d="m453.16 392.837h30v61.148h-30z" fill="#9ee2f8"/></g><g><path d="m323.27 392.837h30v34.373h-30z" fill="#beebfa"/></g><g><path d="m323.27 460.583h30v51.417h-30z" fill="#beebfa"/></g><g><path d="m338.27 392.837h15v34.373h-15z" fill="#9ee2f8"/></g><g><path d="m338.27 460.583h15v51.417h-15z" fill="#9ee2f8"/></g><g><path d="m193.379 392.837h30v54.455h-30z" fill="#beebfa"/></g><g><path d="m388.215 392.837h30v106.687h-30z" fill="#9ee2f8"/></g><path d="m444.225 227.286c-2.828 0-5.609.193-8.346.53-3.917-50.444-46.06-90.166-97.51-90.166-.033 0-.066.001-.099.001v225.186h105.955c37.431 0 67.775-30.344 67.775-67.775s-30.344-67.776-67.775-67.776z" fill="#9ee2f8"/></g></svg>