<svg id="Capa_1" enable-background="new 0 0 512 512" height="512" viewBox="0 0 512 512" width="512" xmlns="http://www.w3.org/2000/svg"><g><circle cx="189.833" cy="195.962" fill="#ffb655" r="97.766"/><path d="m189.833 98.196c53.995 0 97.766 43.772 97.766 97.766s-43.772 97.766-97.766 97.766z" fill="#ff7037"/><g><path d="m174.833 6.129h30v62.067h-30z" fill="#ffe477"/></g><g><path d="m189.833 6.129h15v62.067h-15z" fill="#ffda44"/></g><g><path d="m271.088 68.674h62.067v30h-62.067z" fill="#ffda44" transform="matrix(.707 -.707 .707 .707 29.323 238.14)"/></g><g><path d="m46.511 293.251h62.068v30h-62.068z" fill="#ffe477" transform="matrix(.707 -.707 .707 .707 -195.254 145.117)"/></g><g><path d="m0 180.962h62.066v30h-62.066z" fill="#ffe477"/></g><g><path d="m62.545 52.64h30v62.067h-30z" fill="#ffe477" transform="matrix(.707 -.707 .707 .707 -36.454 79.341)"/></g><g><g><g><path d="m317.108 505.871-21.213-21.213 51.586-51.587h-103.562l101.684-101.682 21.212 21.213-50.469 50.469h103.561z" fill="#ffda44"/></g></g></g><path d="m222.082 238.831c2.932 0 5.814.201 8.651.549 4.061-52.29 47.745-93.464 101.077-93.464 53.34 0 97.031 41.188 101.079 93.49 2.903-.365 5.854-.575 8.855-.575 38.801 0 70.255 31.454 70.255 70.255s-31.454 70.255-70.255 70.255h-219.662c-38.801 0-70.255-31.454-70.255-70.255s31.455-70.255 70.255-70.255z" fill="#e6e6e6"/><path d="m441.745 238.831c-3.001 0-5.952.21-8.855.575-4.045-52.268-47.683-93.436-100.976-93.489v233.424h109.831c38.801 0 70.255-31.454 70.255-70.255s-31.454-70.255-70.255-70.255z" fill="#d7d7d7"/></g></svg>