<svg id="Capa_1" enable-background="new 0 0 512 512" height="512" viewBox="0 0 512 512" width="512" xmlns="http://www.w3.org/2000/svg"><g><g><g><path d="m264.754 83.261c-27.172-27.172-61.905-42.167-97.426-45.005 36.233 46.784 32.879 114.323-10.063 157.265s-110.481 46.296-157.265 10.063c2.838 35.521 17.833 70.254 45.005 97.426 60.682 60.682 159.067 60.682 219.749 0s60.681-159.067 0-219.749z" fill="#ffe477"/></g></g><path d="m264.754 83.261c-2.837-2.837-5.76-5.532-8.754-8.104v235.967c2.995-2.572 5.916-5.277 8.754-8.115 60.681-60.681 60.681-159.066 0-219.748z" fill="#ffda44"/><path d="m461.556 364.289c1.237-5.147 1.909-10.513 1.909-16.038 0-37.782-30.628-68.41-68.41-68.41-8.275 0-16.206 1.47-23.548 4.162-11.468-41.668-49.625-72.277-94.937-72.277-54.381 0-98.465 44.084-98.465 98.465 0 .451.011.899.017 1.348-9.353-4.664-19.893-7.302-31.054-7.302-38.49 0-69.693 31.203-69.693 69.693 0 1.888.097 3.753.244 5.604-25.193.948-45.328 21.658-45.328 47.083 0 26.028 21.1 47.128 47.128 47.128h377.758c30.277 0 54.822-24.545 54.822-54.822.001-28.804-22.215-52.401-50.443-54.634z" fill="#0d91bd"/><path d="m461.556 364.289c1.237-5.146 1.909-10.513 1.909-16.038 0-37.782-30.628-68.41-68.41-68.41-8.275 0-16.206 1.47-23.548 4.162-11.468-41.668-49.625-72.277-94.938-72.277-7.055 0-13.935.748-20.57 2.159v259.86h201.178c30.277 0 54.822-24.545 54.822-54.822.001-28.804-22.215-52.401-50.443-54.634z" fill="#09607d"/><g><path d="m397.7 381.898h-30c0-8.805-7.164-15.968-15.968-15.968s-15.968 7.164-15.968 15.968h-30c0-25.347 20.621-45.968 45.968-45.968s45.968 20.621 45.968 45.968z" fill="#04303e"/></g><g><path d="m244.321 412.866h-30c0-8.805-7.164-15.968-15.968-15.968-8.805 0-15.969 7.163-15.969 15.968h-30c0-25.347 20.622-45.968 45.969-45.968s45.968 20.621 45.968 45.968z" fill="#09607d"/></g></g></svg>