<svg id="Capa_1" enable-background="new 0 0 491.273 491.273" height="512" viewBox="0 0 491.273 491.273" width="512" xmlns="http://www.w3.org/2000/svg"><g><path d="m213.136 41.265c-21.875-21.874-49.836-33.946-78.432-36.231 29.169 37.663 26.469 92.034-8.101 126.604s-88.94 37.27-126.603 8.101c2.285 28.596 14.356 56.557 36.231 78.431 48.851 48.851 128.054 48.851 176.905 0s48.851-128.054 0-176.905z" fill="#ffe477"/><path d="m213.136 41.265c-21.875-21.874-49.836-33.946-78.432-36.231 29.169 37.663 26.469 92.034-8.101 126.604-.562.562-1.144 1.093-1.717 1.638v121.53c31.946-.052 63.875-12.262 88.249-36.636 48.852-48.851 48.852-128.054.001-176.905z" fill="#ffda44"/><path d="m201.356 206.612c2.932 0 5.814.201 8.651.549 4.061-52.29 47.745-93.464 101.077-93.464 53.34 0 97.031 41.188 101.079 93.49 2.903-.365 5.854-.575 8.855-.575 38.801 0 70.255 31.454 70.255 70.255s-31.454 70.255-70.255 70.255h-219.662c-38.801 0-70.255-31.454-70.255-70.255s31.454-70.255 70.255-70.255z" fill="#beebfa"/><g><path d="m236.187 379.429h30v74.81h-30z" fill="#beebfa"/></g><g><path d="m416.187 379.429h30v54.81h-30z" fill="#9ee2f8"/></g><g><path d="m296.187 379.429h30v30.81h-30z" fill="#beebfa"/></g><g><path d="m296.187 440.152h30v46.087h-30z" fill="#beebfa"/></g><g><path d="m311.187 379.429h15v30.81h-15z" fill="#9ee2f8"/></g><g><path d="m311.187 440.152h15v46.087h-15z" fill="#9ee2f8"/></g><g><path d="m176.187 379.429h30v48.81h-30z" fill="#beebfa"/></g><g><path d="m356.187 379.429h30v95.627h-30z" fill="#9ee2f8"/></g><path d="m421.018 206.612c-3.001 0-5.952.21-8.855.575-4.045-52.268-47.683-93.436-100.976-93.489v233.424h109.831c38.801 0 70.255-31.454 70.255-70.255s-31.454-70.255-70.255-70.255z" fill="#9ee2f8"/></g></svg>