<svg id="Capa_1" enable-background="new 0 0 510.173 510.173" height="512" viewBox="0 0 510.173 510.173" width="512" xmlns="http://www.w3.org/2000/svg"><g><path d="m408.939 352.09c-53.487 0-97.003-43.516-97.003-97.003s43.516-97.003 97.003-97.003c19.438 0 38.195 5.732 54.246 16.575l12.43 8.397-16.794 24.859-12.43-8.397c-11.072-7.48-24.023-11.434-37.452-11.434-36.945 0-67.003 30.058-67.003 67.003s30.058 67.003 67.003 67.003c13.942 0 25.729-4.2 35.029-12.484 5.524-4.917 10.042-11.147 14.782-16.797l22.983 19.282c-5.703 6.798-11.167 14.002-17.813 19.919-14.749 13.136-33.762 20.08-54.981 20.08z" fill="#04303e"/><path d="m253.936 248.083c-24.813 0-45-20.187-45-45s20.187-45 45-45 45 20.187 45 45-20.186 45-45 45zm0-60c-8.271 0-15 6.729-15 15s6.729 15 15 15 15-6.729 15-15-6.728-15-15-15z" fill="#09607d"/><path d="m151.638 367.471v-314.706c0-20.857-16.908-37.765-37.765-37.765-20.857 0-37.765 16.908-37.765 37.765v313.721c-19.651 12.344-32.712 34.213-32.67 59.142.065 38.329 32.63 70.229 70.953 69.534 37.882-.686 68.379-31.609 68.379-69.654.001-24.226-12.369-45.554-31.132-58.037z" fill="#ffc477"/><path d="m114.391 495.167c37.882-.686 68.379-31.609 68.379-69.654 0-24.225-12.37-45.553-31.133-58.036v-314.707c0-20.857-16.908-37.765-37.765-37.765z" fill="#ff9f22"/><path d="m166.639 359.919v-307.154c0-29.095-23.671-52.765-52.766-52.765s-52.764 23.67-52.764 52.765v305.929c-20.645 16.018-32.714 40.474-32.67 66.959.038 22.582 9.135 43.916 25.614 60.073 16.117 15.802 37.044 24.448 59.083 24.448.508 0 1.019-.004 1.527-.014 22.289-.404 43.179-9.389 58.821-25.299 15.662-15.931 24.287-37.01 24.287-59.353 0-25.617-11.502-49.575-31.132-65.589zm-30-57.801h-45.53v-45.529h45.53zm0-75.529h-45.53v-45.53h45.53zm0-75.53h-45.53v-45.529h45.53zm-22.766-121.059c12.553 0 22.765 10.212 22.765 22.765v22.765h-45.53v-22.765c.001-12.553 10.213-22.765 22.765-22.765zm38.217 433.829c-10.1 10.273-23.585 16.075-37.97 16.335-14.492.268-28.365-5.371-39.065-15.861-10.691-10.481-16.592-24.226-16.616-38.702-.032-18.955 9.556-36.306 25.649-46.414l7.021-4.411v-42.659h45.53v43.39l6.691 4.452c15.304 10.182 24.441 27.208 24.441 45.547 0 14.427-5.569 28.036-15.681 38.323z" fill="#ff8859"/><path d="m166.639 359.926v-307.155c0-29.095-23.67-52.765-52.765-52.765v30c12.553 0 22.765 10.212 22.765 22.765v22.765h-22.765v30h22.765v45.529h-22.765v30h22.765v45.53h-22.765v30h22.765v45.529h-22.765v30h22.765v43.39l6.691 4.452c15.304 10.182 24.441 27.208 24.441 45.547 0 14.426-5.569 28.036-15.681 38.321-10.1 10.274-23.585 16.075-37.97 16.336l.543 29.995c22.289-.404 43.179-9.388 58.821-25.299 15.662-15.931 24.287-37.01 24.287-59.353 0-25.615-11.502-49.574-31.132-65.587z" fill="#ff7037"/></g></svg>