<svg id="Capa_1" enable-background="new 0 0 512 512" height="512" viewBox="0 0 512 512" width="512" xmlns="http://www.w3.org/2000/svg"><g><g><path d="m52.367 0h101.07v30h-101.07z" fill="#09607d"/></g><g><path d="m52.367 249.678h101.07v30h-101.07z" fill="#04303e"/></g><g><path d="m154.805 0 318.077 46.896c17.462 0 31.618 39.385 31.618 87.969s-14.156 87.969-31.618 87.969l-318.077 56.844z" fill="#ff8859"/><path d="m154.805 139.839v139.839l318.077-56.844c16.862 0 30.637-36.726 31.565-82.995z" fill="#ff7037"/><ellipse cx="154.805" cy="139.839" fill="#ff7037" rx="31.618" ry="139.839"/><path d="m186.423 139.839c0 77.231-14.156 139.839-31.618 139.839s-31.618-62.608-31.618-139.839z" fill="#ff4c04"/><path d="m377.695 130.904c0 47.318-8.313 94.576-19.917 112.501l63.81-11.404c11.541-15.429 19.676-52.544 19.676-95.886 0-44.319-8.505-82.128-20.461-96.897l-61.774-9.108c10.946 16.157 18.666 55.194 18.666 100.794z" fill="#fff5f5"/><path d="m377.597 139.839c-.963 44.221-8.946 86.77-19.819 103.565l63.81-11.404c11.209-14.985 19.203-50.428 19.654-92.162h-63.645z" fill="#ebe1dc"/><path d="m253.123 130.879c0 48.456-8.717 112.138-20.76 134.939l62.652-11.197c11.853-20.371 20.394-75.778 20.394-123.742 0-46.705-8.098-92.162-19.467-110.07l-62.739-9.25c11.606 19.951 19.92 71.998 19.92 119.32z" fill="#fff5f5"/><path d="m295.015 254.621c11.121-19.114 19.326-69.069 20.297-114.782h-62.285c-.973 47.06-9.351 104.558-20.664 125.978z" fill="#ebe1dc"/></g><path d="m7.5 0h60v512h-60z" fill="#e6e6e6"/><path d="m37.5 0h30v512h-30z" fill="#d7d7d7"/></g></svg>