<svg id="Capa_1" enable-background="new 0 0 512 512" height="512" viewBox="0 0 512 512" width="512" xmlns="http://www.w3.org/2000/svg"><g><path d="m497 221.029c0 22.183-17.983 40.167-40.167 40.167-22.183 0-40.167-17.983-40.167-40.167 0 22.183-17.983 40.167-40.167 40.167s-40.167-17.983-40.167-40.167c0 22.183-17.983 40.167-40.167 40.167s-40.165-17.984-40.165-40.167c0 22.183-17.983 40.167-40.167 40.167s-40.167-17.983-40.167-40.167c0 22.183-17.983 40.167-40.167 40.167s-40.167-17.983-40.167-40.167c0 22.183-17.983 40.167-40.167 40.167s-40.165-17.984-40.165-40.167v275.971h482z" fill="#beebfa"/><path d="m497 310.085c0 22.183-17.983 40.167-40.167 40.167-22.183 0-40.167-17.983-40.167-40.167 0 22.183-17.983 40.167-40.167 40.167s-40.167-17.983-40.167-40.167c0 22.183-17.983 40.167-40.167 40.167s-40.165-17.984-40.165-40.167c0 22.183-17.983 40.167-40.167 40.167s-40.167-17.983-40.167-40.167c0 22.183-17.983 40.167-40.167 40.167s-40.167-17.983-40.167-40.167c0 22.183-17.983 40.167-40.167 40.167s-40.165-17.984-40.165-40.167v186.915h482z" fill="#9ee2f8"/><path d="m497 399.141c0 22.183-17.983 40.167-40.167 40.167-22.183 0-40.167-17.983-40.167-40.167 0 22.183-17.983 40.167-40.167 40.167s-40.167-17.983-40.167-40.167c0 22.183-17.983 40.167-40.167 40.167s-40.165-17.984-40.165-40.167c0 22.183-17.983 40.167-40.167 40.167s-40.167-17.983-40.167-40.167c0 22.183-17.983 40.167-40.167 40.167s-40.167-17.983-40.167-40.167c0 22.183-17.983 40.167-40.167 40.167s-40.165-17.984-40.165-40.167v97.859h482z" fill="#beebfa"/><g><path d="m512 512h-512v-512h30v482h452v-482h30z" fill="#09607d"/></g><g><path d="m512 512h-256v-30h226v-482h30z" fill="#04303e"/></g><path d="m456.833 261.195c-22.183 0-40.167-17.983-40.167-40.167 0 22.183-17.983 40.167-40.167 40.167-22.183 0-40.167-17.983-40.167-40.167 0 22.183-17.983 40.167-40.167 40.167s-40.167-17.983-40.167-40.167v275.972h241v-275.971c.002 22.183-17.981 40.166-40.165 40.166z" fill="#9ee2f8"/><path d="m456.833 350.251c-22.183 0-40.167-17.983-40.167-40.167 0 22.183-17.983 40.167-40.167 40.167-22.183 0-40.167-17.983-40.167-40.167 0 22.183-17.983 40.167-40.167 40.167s-40.167-17.983-40.167-40.167v186.916h241v-186.915c.002 22.183-17.981 40.166-40.165 40.166z" fill="#7ed8f6"/><g><path d="m512 512h-512v-512h30v482h452v-482h30z" fill="#09607d"/></g><path d="m456.833 439.307c-22.183 0-40.167-17.983-40.167-40.167 0 22.183-17.983 40.167-40.167 40.167-22.183 0-40.167-17.983-40.167-40.167 0 22.183-17.983 40.167-40.167 40.167s-40.167-17.983-40.167-40.167v97.86h241v-97.859c.002 22.183-17.981 40.166-40.165 40.166z" fill="#9ee2f8"/><g><path d="m512 512h-256v-30h226v-482h30z" fill="#04303e"/></g></g></svg>