<svg id="Capa_1" enable-background="new 0 0 490.887 490.887" height="512" viewBox="0 0 490.887 490.887" width="512" xmlns="http://www.w3.org/2000/svg"><g><path d="m213.136 44.533c-21.875-21.874-49.836-33.946-78.432-36.23 29.169 37.663 26.469 92.034-8.101 126.604s-88.94 37.269-126.603 8.1c2.285 28.596 14.356 56.557 36.231 78.431 48.851 48.851 128.054 48.851 176.905 0s48.851-128.054 0-176.905z" fill="#ffe477"/><path d="m213.136 44.533c-21.875-21.874-49.836-33.946-78.432-36.23 29.169 37.663 26.469 92.034-8.101 126.604-.562.562-1.144 1.093-1.717 1.638v121.53c31.946-.052 63.875-12.262 88.249-36.636 48.852-48.851 48.852-128.055.001-176.906z" fill="#ffda44"/><g><g><g><path d="m295.995 482.584-21.213-21.213 51.586-51.587h-103.562l101.683-101.682 21.213 21.213-50.469 50.469h103.561z" fill="#ffb655"/></g></g></g><path d="m200.969 215.545c2.932 0 5.814.201 8.651.549 4.061-52.29 47.745-93.464 101.077-93.464 53.34 0 97.031 41.188 101.079 93.49 2.903-.365 5.854-.575 8.855-.575 38.801 0 70.255 31.454 70.255 70.255s-31.454 70.255-70.255 70.255h-219.662c-38.801 0-70.255-31.454-70.255-70.255s31.454-70.255 70.255-70.255z" fill="#0d91bd"/><path d="m420.632 215.544c-3.001 0-5.952.21-8.855.575-4.045-52.268-47.683-93.436-100.976-93.489v233.424h109.831c38.801 0 70.255-31.454 70.255-70.255s-31.454-70.255-70.255-70.255z" fill="#09607d"/></g></svg>