<svg id="Capa_1" enable-background="new 0 0 501.929 501.929" height="512" viewBox="0 0 501.929 501.929" width="512" xmlns="http://www.w3.org/2000/svg"><g><g><g><g fill="#beebfa"><path d="m186.843 407.571h30v30h-30z"/><path d="m246.843 467.571h30v30h-30z"/><path d="m306.843 407.571h30v30h-30z"/></g><path d="m321.843 407.571h15v30h-15z" fill="#9ee2f8"/><path d="m366.843 467.571h30v30h-30z" fill="#9ee2f8"/><path d="m426.843 407.571h30v30h-30z" fill="#9ee2f8"/></g></g><circle cx="189.833" cy="194.192" fill="#ffb655" r="97.766"/><path d="m189.833 96.425c53.995 0 97.766 43.772 97.766 97.766s-43.772 97.766-97.766 97.766z" fill="#ff7037"/><g><path d="m174.833 4.358h30v62.067h-30z" fill="#ffe477"/></g><g><path d="m189.833 4.358h15v62.067h-15z" fill="#ffda44"/></g><g><path d="m271.088 66.903h62.067v30h-62.067z" fill="#ffda44" transform="matrix(.707 -.707 .707 .707 30.575 237.621)"/></g><g><path d="m46.511 291.48h62.068v30h-62.068z" fill="#ffe477" transform="matrix(.707 -.707 .707 .707 -194.002 144.599)"/></g><g><path d="m0 179.192h62.066v30h-62.066z" fill="#ffe477"/></g><g><path d="m62.545 50.87h30v62.067h-30z" fill="#ffe477" transform="matrix(.707 -.707 .707 .707 -35.202 78.823)"/></g><path d="m212.011 237.061c2.932 0 5.814.201 8.651.549 4.061-52.29 47.745-93.464 101.077-93.464 53.34 0 97.031 41.188 101.079 93.49 2.903-.365 5.854-.575 8.855-.575 38.801 0 70.255 31.454 70.255 70.255s-31.454 70.255-70.255 70.255h-219.662c-38.801 0-70.255-31.454-70.255-70.255s31.455-70.255 70.255-70.255z" fill="#beebfa"/><path d="m431.674 237.061c-3.001 0-5.952.21-8.855.575-4.045-52.268-47.683-93.436-100.976-93.489v233.424h109.831c38.801 0 70.255-31.454 70.255-70.255s-31.454-70.255-70.255-70.255z" fill="#9ee2f8"/></g></svg>