<svg id="Capa_1" enable-background="new 0 0 505.099 505.099" height="512" viewBox="0 0 505.099 505.099" width="512" xmlns="http://www.w3.org/2000/svg"><g><g><path d="m119.734 145.018h-89.734v-30h89.734c8.271 0 15-6.729 15-15s-6.729-15-15-15v-30c24.813 0 45 20.187 45 45s-20.186 45-45 45z" fill="#9dd39b"/></g><g><path d="m0 175.018h101v30h-101z" fill="#9dd39b"/></g><g><path d="m225 205.018h-75.266v-30h75.266c15.29 0 27.729-12.439 27.729-27.73h30c0 31.833-25.897 57.73-57.729 57.73z" fill="#9dd39b"/></g><g><path d="m30 235.018h153v30h-153z" fill="#9dd39b"/></g><g><path d="m446.469 265.018h-224.802v-30h224.802c15.786 0 28.63-12.843 28.63-28.629s-12.844-28.63-28.63-28.63-28.63 12.844-28.63 28.63h-30c0-32.329 26.301-58.63 58.629-58.63 32.329 0 58.631 26.301 58.631 58.63 0 32.328-26.301 58.629-58.63 58.629z" fill="#9dd39b"/></g><g><path d="m20 355.018h59.867v30h-59.867z" fill="#86c983"/></g><g><path d="m200.179 450.081v-30c9.667 0 17.531-7.864 17.531-17.531s-7.864-17.531-17.531-17.531h-79.179v-30h79.179c26.209 0 47.531 21.322 47.531 47.531s-21.322 47.531-47.531 47.531z" fill="#86c983"/></g><g><path d="m0 295.018h88.333v30h-88.333z" fill="#86c983"/></g><g><path d="m119.734 295.018h105.933v30h-105.933z" fill="#86c983"/></g><g><path d="m367.294 407.431c-30.992 0-56.207-25.215-56.207-56.207h30c0 14.45 11.757 26.207 26.207 26.207s26.206-11.757 26.206-26.207-11.756-26.206-26.206-26.206h-111.294v-30h111.294c30.992 0 56.206 25.214 56.206 56.206s-25.214 56.207-56.206 56.207z" fill="#86c983"/></g></g></svg>