<svg id="Capa_1" enable-background="new 0 0 512 512" height="512" viewBox="0 0 512 512" width="512" xmlns="http://www.w3.org/2000/svg"><g><g><g><path d="m162.285 406.68h-87.94c-16.569 0-30-13.431-30-30v-113.775h177.94v83.775c0 33.137-26.863 60-60 60z" fill="#464646"/><path d="m256 278.822c-6.628 0-12.949 1.336-18.715 3.744v-34.662h-198.993l117.702-119.112.563-.602c4.427-5.002 10.792-7.87 17.464-7.87 12.853 0 23.31 10.457 23.31 23.31h30c0-29.395-23.915-53.31-53.31-53.31-15.109 0-29.527 6.429-39.632 17.655l-134.389 135.999v33.931h29.346v98.775c0 24.813 20.187 45 45 45h87.939c41.355 0 75-33.645 75-75v-19.142c0-10.32 8.396-18.716 18.715-18.716s18.715 8.396 18.715 18.716h30c0-26.862-21.854-48.716-48.715-48.716zm-48.715 67.858c0 24.813-20.187 45-45 45h-87.939c-8.271 0-15-6.729-15-15v-98.775h147.939z" fill="#c9885b"/></g><g><path d="m349.715 406.68h87.94c16.569 0 30-13.431 30-30v-113.775h-177.94v83.775c0 33.137 26.863 60 60 60z" fill="#2d2d2d"/></g></g><g><path d="m348.04 319.792h60.289v30h-60.289z" fill="#5a5a5a" transform="matrix(.707 -.707 .707 .707 -125.966 365.475)"/></g><g><path d="m102.671 319.792h60.289v30h-60.289z" fill="#6e6e6e" transform="matrix(.707 -.707 .707 .707 -197.833 191.973)"/></g><path d="m512 243.974-134.389-135.998c-10.104-11.227-24.522-17.655-39.632-17.655-29.395 0-53.31 23.915-53.31 53.31h30c0-12.853 10.457-23.31 23.31-23.31 6.672 0 13.037 2.868 17.464 7.87l.273.309 117.991 119.405h-198.992v34.662c-5.765-2.408-12.086-3.744-18.715-3.744v30c10.319 0 18.715 8.396 18.715 18.716v19.142c0 41.355 33.645 75 75 75h87.939c24.813 0 45-20.187 45-45v-98.775h29.346zm-59.346 132.706c0 8.271-6.729 15-15 15h-87.939c-24.813 0-45-20.187-45-45v-68.775h147.939z" fill="#b56d3c"/></g></svg>