<svg id="Capa_1" enable-background="new 0 0 512 512" height="512" viewBox="0 0 512 512" width="512" xmlns="http://www.w3.org/2000/svg"><g><circle cx="181.5" cy="181.5" fill="#fff5f5" r="181.5"/><path d="m181.5 0c100.24 0 181.5 81.26 181.5 181.5s-81.26 181.5-181.5 181.5z" fill="#ebe1dc"/><circle cx="106.645" cy="137.287" fill="#ebe1dc" r="44.213"/><path d="m311.667 111.333 46.487 26.84h53.679l26.84 46.487 46.487 26.84v53.679l26.84 46.488-26.84 46.487v53.679l-46.487 26.84-26.84 46.487h-53.679l-46.487 26.84-46.488-26.84h-53.679l-26.84-46.487-46.487-26.84v-53.679l-26.84-46.487 26.84-46.488v-53.679l46.487-26.84 26.84-46.487h53.679z" fill="#ffe477"/><path d="m485.161 265.179v-53.679l-46.488-26.84-26.84-46.487h-53.679l-46.487-26.84v400.667l46.487-26.84h53.679l26.84-46.487 46.488-26.84v-53.679l26.839-46.487z" fill="#ffda44"/><circle cx="311.623" cy="311.667" fill="#ffb655" r="143.779"/><path d="m311.623 167.887c79.407 0 143.779 64.372 143.779 143.779s-64.372 143.78-143.779 143.78z" fill="#ff7037"/></g></svg>