<svg id="Capa_1" enable-background="new 0 0 506.146 506.146" height="512" viewBox="0 0 506.146 506.146" width="512" xmlns="http://www.w3.org/2000/svg"><g><circle cx="146.346" cy="146.022" fill="#ffb655" r="68.28"/><path d="m146.346 77.742c37.71 0 68.28 30.57 68.28 68.28s-30.57 68.28-68.28 68.28z" fill="#ff7037"/><g><path d="m131.346 0h30v47.742h-30z" fill="#ffe477"/></g><g><path d="m146.346 0h15v47.742h-15z" fill="#ffda44"/></g><g><path d="m208.848 44.649h47.743v30h-47.743z" fill="#ffda44" transform="matrix(.707 -.707 .707 .707 25.984 182.029)"/></g><g><path d="m36.101 217.396h47.742v30h-47.742z" fill="#ffe477" transform="matrix(.707 -.707 .707 .707 -146.763 110.474)"/></g><g><path d="m.324 131.022h47.743v30h-47.743z" fill="#ffe477"/></g><g><path d="m44.973 35.777h30v47.743h-30z" fill="#ffe477" transform="matrix(.707 -.707 .707 .707 -24.612 59.877)"/></g><path d="m330.127 175.094c-1.959 0-3.886.134-5.782.367-2.714-34.946-31.909-62.464-67.552-62.464-35.649 0-64.848 27.527-67.553 62.482-1.94-.244-3.912-.384-5.918-.384-25.932 0-46.953 21.022-46.953 46.953s21.021 46.952 46.953 46.952h146.805c25.931 0 46.953-21.022 46.953-46.953s-21.021-46.953-46.953-46.953z" fill="#e6e6e6"/><g><path d="m30.725 351.083h153v30h-153z" fill="#9dd39b"/></g><g><path d="m447.194 381.083h-224.803v-30h224.803c15.786 0 28.629-12.843 28.629-28.629s-12.843-28.629-28.629-28.629c-15.787 0-28.631 12.843-28.631 28.629h-30c0-32.328 26.301-58.629 58.629-58.629 32.329 0 58.63 26.301 58.63 58.629s-26.3 58.629-58.628 58.629z" fill="#9dd39b"/></g><g><path d="m447.194 381.083h-190.469v-30h190.469c15.786 0 28.629-12.843 28.629-28.629s-12.843-28.629-28.629-28.629c-15.787 0-28.631 12.843-28.631 28.629h-30c0-32.328 26.301-58.629 58.629-58.629 32.329 0 58.63 26.301 58.63 58.629s-26.3 58.629-58.628 58.629z" fill="#86c983"/></g><g><path d="m.725 411.083h79.867v30h-79.867z" fill="#9dd39b"/></g><g><path d="m200.903 506.146v-30c9.667 0 17.531-7.864 17.531-17.531s-7.864-17.532-17.531-17.532h-79.179v-30h79.179c26.209 0 47.531 21.323 47.531 47.532s-21.322 47.531-47.531 47.531z" fill="#9dd39b"/></g><path d="m330.127 175.094c-1.959 0-3.886.134-5.782.367-2.714-34.946-31.909-62.464-67.552-62.464-.023 0-.046.002-.069.002v156.001h73.403c25.931 0 46.953-21.022 46.953-46.953 0-25.932-21.021-46.953-46.953-46.953z" fill="#d7d7d7"/></g></svg>