<svg id="Capa_1" enable-background="new 0 0 505.098 505.098" height="512" viewBox="0 0 505.098 505.098" width="512" xmlns="http://www.w3.org/2000/svg"><g><path d="m202.599 39.101c-16.725-16.725-38.103-25.955-59.967-27.701 22.302 28.796 20.238 70.367-6.194 96.799s-68.002 28.496-96.799 6.194c1.747 21.864 10.976 43.242 27.701 59.967 37.351 37.351 97.908 37.351 135.258 0s37.352-97.908.001-135.259z" fill="#ffe477"/><path d="m202.599 39.101c-16.725-16.725-38.103-25.954-59.967-27.701 22.302 28.796 20.238 70.367-6.194 96.799-.43.43-.875.836-1.312 1.253v92.919c24.425-.04 48.838-9.375 67.473-28.011 37.35-37.351 37.35-97.908 0-135.259z" fill="#ffda44"/><g><path d="m30 338.635h153v30h-153z" fill="#9dd39b"/></g><g><path d="m446.469 368.635h-224.802v-30h224.803c15.786 0 28.629-12.843 28.629-28.629s-12.843-28.629-28.629-28.629c-15.787 0-28.631 12.843-28.631 28.629h-30c0-32.328 26.301-58.629 58.629-58.629 32.329 0 58.63 26.301 58.63 58.629s-26.301 58.629-58.629 58.629z" fill="#9dd39b"/></g><g><path d="m446.469 368.635h-190.469v-30h190.469c15.786 0 28.629-12.843 28.629-28.629s-12.843-28.629-28.629-28.629c-15.787 0-28.631 12.843-28.631 28.629h-30c0-32.328 26.301-58.629 58.629-58.629 32.329 0 58.63 26.301 58.63 58.629s-26.3 58.629-58.628 58.629z" fill="#86c983"/></g><g><path d="m0 398.635h79.867v30h-79.867z" fill="#9dd39b"/></g><g><path d="m200.179 493.698v-30c9.667 0 17.531-7.864 17.531-17.531s-7.864-17.532-17.531-17.532h-79.179v-30h79.179c26.209 0 47.531 21.323 47.531 47.532s-21.322 47.531-47.531 47.531z" fill="#9dd39b"/></g><path d="m329.403 162.645c-1.959 0-3.886.134-5.782.367-2.714-34.946-31.909-62.464-67.552-62.464-35.649 0-64.848 27.527-67.553 62.482-1.94-.244-3.912-.384-5.918-.384-25.932 0-46.953 21.022-46.953 46.953s21.022 46.953 46.953 46.953h146.805c25.931 0 46.953-21.022 46.953-46.953s-21.022-46.954-46.953-46.954z" fill="#e6e6e6"/><path d="m329.403 162.646c-1.959 0-3.886.134-5.782.367-2.714-34.946-31.909-62.464-67.552-62.464-.023 0-.046.002-.069.002v156.002h73.403c25.931 0 46.953-21.022 46.953-46.953 0-25.933-21.022-46.954-46.953-46.954z" fill="#d7d7d7"/></g></svg>