<svg id="Capa_1" enable-background="new 0 0 512 512" height="512" viewBox="0 0 512 512" width="512" xmlns="http://www.w3.org/2000/svg"><g><path d="m285.153 153.876c23.827 0 43.142-19.315 43.142-43.142 0-22.666-17.483-41.236-39.697-42.993 1.051-4.374 1.584-8.949 1.492-13.666-.574-29.473-25.263-52.79-54.741-52.79h-235.349v509.43h411.564c48.542 0 90.832-34.533 98.967-82.388.966-5.683 1.469-11.524 1.469-17.482 0-57.206-46.375-103.581-103.581-103.581-.474 0-.946.012-1.418.018 4.906-9.838 7.682-20.926 7.682-32.667 0-40.49-32.824-73.314-73.314-73.314-1.987 0-3.948.102-5.895.257-.997-26.501-22.784-47.683-49.529-47.683" fill="#ff8859"/><path d="m408.419 307.265c-.474 0-.946.011-1.418.018 4.906-9.838 7.682-20.926 7.682-32.667 0-40.49-32.824-73.314-73.314-73.314-1.986 0-3.948.102-5.895.257-.997-26.501-22.783-47.683-49.529-47.683h-.792c23.827 0 43.142-19.315 43.142-43.142 0-22.666-17.483-41.236-39.697-42.993 1.051-4.374 1.584-8.949 1.492-13.666-.432-22.202-14.55-40.905-34.09-48.785v505.425h155.564c48.542 0 90.832-34.533 98.967-82.388.966-5.683 1.469-11.524 1.469-17.482 0-57.206-46.375-103.58-103.581-103.58z" fill="#ff7037"/><g><g><path d="m113.351 385.552-21.213-21.213c6.599-6.6 6.599-17.337 0-23.937-6.601-6.601-17.338-6.599-23.937 0l-21.213-21.212c18.297-18.296 48.065-18.298 66.362 0 18.296 18.296 18.296 48.066.001 66.362z" fill="#ff7037"/></g></g><g><g><path d="m226.581 289.282-21.213-21.213c6.599-6.6 6.599-17.337 0-23.937-6.601-6.601-17.338-6.599-23.937 0l-21.213-21.213c18.296-18.296 48.064-18.298 66.362 0 18.297 18.296 18.297 48.067.001 66.363z" fill="#ff7037"/></g></g><g><g><path d="m101.645 127.037-21.213-21.213c6.6-6.6 6.6-17.338 0-23.938s-17.337-6.6-23.937 0l-21.213-21.213c18.296-18.296 48.064-18.298 66.362 0 18.297 18.296 18.297 48.068.001 66.364z" fill="#ff7037"/></g></g><g><path d="m385.707 448.497-21.213-21.213c6.599-6.6 6.599-17.337 0-23.937-6.601-6.6-17.338-6.6-23.937 0l-21.213-21.213c18.296-18.296 48.064-18.298 66.362 0 18.297 18.297 18.297 48.068.001 66.363z" fill="#ff4c04"/></g><path d="m240.037 340.532h31.926v31.926h-31.926z" fill="#ff7037"/><path d="m256 340.532h15.963v31.926h-15.963z" fill="#ff4c04"/><g><g><path d="m129.377 419.992h31.926v31.926h-31.926z" fill="#ff7037"/></g></g><g><g><path d="m153.943 121.954h31.926v31.926h-31.926z" fill="#ff7037"/></g></g><g><g><path d="m66.731 203.897h31.926v31.926h-31.926z" fill="#ff7037"/></g></g></g></svg>