<svg id="Capa_1" enable-background="new 0 0 512 512" height="512" viewBox="0 0 512 512" width="512" xmlns="http://www.w3.org/2000/svg"><g><g><path d="m241 0h30v70h-30z" fill="#464646"/></g><g><path d="m256 0h15v70h-15z" fill="#2d2d2d"/></g><path d="m226 512c-25.581 0-46.393-20.812-46.393-46.393h30.929c0 8.528 6.937 15.464 15.464 15.464s15.464-6.937 15.464-15.464v-293.825h30.929v293.824c0 25.582-20.812 46.394-46.393 46.394z" fill="#c9885b"/><path d="m256.929 171.782v293.824c0 17.082-13.847 30.929-30.929 30.929s-30.929-13.847-30.929-30.929h-15.464c0 25.582 20.812 46.394 46.393 46.394s46.393-20.812 46.393-46.393v-293.825z" fill="#b56d3c"/><g><path d="m464.642 258.642c0-115.23-93.412-208.642-208.642-208.642s-208.642 93.412-208.642 208.642z" fill="#ff5b5b"/></g><g><path d="m464.642 258.642c0-115.23-93.412-208.642-208.642-208.642v208.642z" fill="#ff3939"/></g><path d="m256 50c-43.078 0-78 93.412-78 208.642h156c0-115.23-34.922-208.642-78-208.642z" fill="#0d91bd"/><path d="m334 258.642c0-115.23-34.922-208.642-78-208.642v208.642z" fill="#09607d"/></g></svg>