<svg id="Capa_1" enable-background="new 0 0 511.625 511.625" height="512" viewBox="0 0 511.625 511.625" width="512" xmlns="http://www.w3.org/2000/svg"><g><path d="m468.262 0h-424.899c-23.472 0-42.5 19.028-42.5 42.5 0 23.472 19.028 42.5 42.5 42.5h55.75c-24.145 0-43.719 19.574-43.719 43.719 0 24.145 19.574 43.719 43.719 43.719h33.088c-18.714 3.773-32.808 20.305-32.808 40.131v3.116c0 22.612 18.33 40.942 40.942 40.942h-29.14c-22.611 0-40.942 18.33-40.942 40.942v3.116c0 22.611 18.33 40.942 40.942 40.942h-9.271c-22.611 0-40.942 18.33-40.942 40.942v3.116c0 22.611 18.33 40.941 40.942 40.941h46.13c-23.472 0-42.5 19.028-42.5 42.5 0 23.472 19.028 42.5 42.5 42.5h20.552c23.472 0 42.5-19.028 42.5-42.5 0-23.472-19.028-42.5-42.5-42.5h44.628c22.611 0 40.942-18.33 40.942-40.941v-3.116c0-22.612-18.33-40.942-40.942-40.942h80.968c22.611 0 40.942-18.33 40.942-40.942v-3.116c0-22.612-18.33-40.942-40.942-40.942h98.335c22.611 0 40.942-18.33 40.942-40.942v-3.116c0-19.826-14.093-36.358-32.808-40.131h11.842c24.145 0 43.719-19.573 43.719-43.719 0-24.145-19.573-43.719-43.719-43.719h55.75c23.472 0 42.5-19.028 42.5-42.5-.001-23.472-19.029-42.5-42.501-42.5z" fill="#e6e6e6"/><path d="m468.262 0h-212.45v341.626h38.389c22.611 0 40.942-18.33 40.942-40.942v-3.116c0-22.612-18.33-40.942-40.942-40.942h98.335c22.611 0 40.942-18.33 40.942-40.942v-3.116c0-19.826-14.093-36.358-32.808-40.131h11.842c24.145 0 43.719-19.573 43.719-43.719 0-24.145-19.573-43.719-43.719-43.719h55.75c23.472 0 42.5-19.028 42.5-42.5 0-23.471-19.028-42.499-42.5-42.499z" fill="#d7d7d7"/></g></svg>