<svg id="Capa_1" enable-background="new 0 0 512 512" height="512" viewBox="0 0 512 512" width="512" xmlns="http://www.w3.org/2000/svg"><g><g><path d="m332 366.333h30v145.667h-30z" fill="#04303e"/></g><g><path d="m407 366.333h30v145.667h-30z" fill="#04303e"/></g><g><path d="m482 366.333h30v145.667h-30z" fill="#04303e"/></g><g><path d="m0 351h30v161h-30z" fill="#09607d"/></g><g><path d="m75 351h30v161h-30z" fill="#09607d"/></g><g><path d="m150 351h30v161h-30z" fill="#09607d"/></g><g><path d="m300.65 186.525h242.699v180h-242.699z" fill="#6fbf6b" transform="matrix(0 -1 1 0 145.475 698.525)"/></g><g><path d="m377 155.176h30v242.699h-30z" fill="#04303e"/></g><g><path d="m437 155.176h30v242.699h-30z" fill="#04303e"/></g><g><path d="m-31.35 186.525h242.699v180h-242.699z" fill="#86c983" transform="matrix(0 -1 1 0 -186.525 366.526)"/></g><g><path d="m45 155.176h30v242.699h-30z" fill="#09607d"/></g><g><path d="m105 155.176h30v242.699h-30z" fill="#09607d"/></g><g><path d="m0 0h512v180h-512z" fill="#9dd39b"/></g><g><path d="m256 0h256v180h-256z" fill="#86c983"/></g><g><path d="m0 45h512v30h-512z" fill="#0d91bd"/></g><g><path d="m0 105h512v30h-512z" fill="#0d91bd"/></g><g><path d="m256 45h256v30h-256z" fill="#09607d"/></g><g><path d="m256 105h256v30h-256z" fill="#09607d"/></g></g></svg>