<svg id="Capa_1" enable-background="new 0 0 511.334 511.334" height="512" viewBox="0 0 511.334 511.334" width="512" xmlns="http://www.w3.org/2000/svg"><g><path d="m215.867 496.334h235.618l-20-72.218 47.024-47.024c10.451-10.451 16.322-24.626 16.322-39.406v-127.238c0-16.29-12.772-30.06-29.056-30.507-16.895-.463-30.737 13.094-30.737 29.885v80.903-215.314c0-16.29-12.772-30.06-29.056-30.507-16.895-.463-30.737 13.094-30.737 29.885v154.93-184.204c0-16.29-12.772-30.06-29.056-30.507-16.895-.463-30.737 13.094-30.737 29.885v184.826-154.308c0-16.29-12.772-30.06-29.056-30.507-16.895-.463-30.737 13.094-30.737 29.885v154.93-94.515c0-16.29-12.772-30.06-29.056-30.507-16.895-.463-30.737 13.094-30.737 29.885v222.914c0 18.717 6.82 36.792 19.184 50.844l20.817 23.656z" fill="#9b5e34"/><path d="m466.187 164.947c-5.582-.152-11.041.705-16.147 2.496v-92.028c0-24.43-19.579-44.842-43.646-45.501-6.22-.173-12.287.915-17.89 3.148-5.298-18.556-22.078-32.502-41.903-33.045-12.208-.337-23.796 4.175-32.558 12.699-5.864 5.706-9.966 12.71-12.037 20.384-4.735-1.921-9.856-3.04-15.198-3.187-12.215-.333-23.795 4.175-32.558 12.699-8.764 8.526-13.59 19.955-13.59 32.18v17.505c-4.295-1.557-8.882-2.461-13.646-2.591-12.193-.326-23.796 4.175-32.558 12.699-8.764 8.526-13.59 19.955-13.59 32.18v222.915c0 22.377 8.141 43.953 22.924 60.753l15.253 17.335-23.548 75.746h275.708l-22.929-82.795 40.841-40.842c13.359-13.358 20.716-31.12 20.716-50.012v-127.237c.001-24.429-19.578-44.842-43.644-45.501zm-229.949 316.387 15.544-50h166.138l13.847 50zm243.594-143.648c0 10.879-4.236 21.106-11.929 28.799l-34.85 34.85h-204.188l-2.551-2.899c-9.961-11.319-15.446-25.857-15.446-40.935v-222.915c0-4.056 1.602-7.849 4.51-10.678 2.906-2.827 6.76-4.311 10.815-4.213 7.978.219 14.468 7.178 14.468 15.513v94.515h30v-154.93c0-4.056 1.602-7.849 4.51-10.678 2.907-2.828 6.771-4.322 10.815-4.213 7.978.219 14.468 7.178 14.468 15.513v154.308h30v-184.827c0-4.056 1.602-7.849 4.51-10.678 2.906-2.828 6.756-4.328 10.815-4.213 7.978.219 14.468 7.178 14.468 15.513v184.204h30v-154.929c0-4.056 1.602-7.849 4.51-10.678 2.907-2.828 6.769-4.322 10.815-4.213 7.978.219 14.468 7.178 14.468 15.513v215.315h30v-80.903c0-4.056 1.602-7.849 4.51-10.678 2.906-2.828 6.752-4.329 10.815-4.213 7.978.219 14.468 7.178 14.468 15.513v127.237z" fill="#824e2b"/><path d="m36.502 496.334h235.618l-20-72.218 47.024-47.024c10.451-10.451 16.322-24.626 16.322-39.406v-127.238c0-16.29-12.772-30.06-29.056-30.507-16.895-.463-30.737 13.094-30.737 29.885v80.903-215.314c0-16.29-12.772-30.06-29.056-30.507-16.895-.463-30.737 13.094-30.737 29.885v154.93-184.204c0-16.29-12.772-30.06-29.056-30.507-16.895-.463-30.737 13.094-30.737 29.885v184.826-154.308c0-16.29-12.772-30.06-29.056-30.507-16.895-.463-30.737 13.094-30.737 29.885v154.93-94.515c0-16.29-12.772-30.06-29.056-30.507-16.895-.463-30.737 13.094-30.737 29.885v222.913c0 18.717 6.82 36.792 19.184 50.844l20.817 23.657z" fill="#c9885b"/><g fill="#b56d3c"><path d="m61.242 259.709h30v101.333h-30z"/><path d="m121.242 259.709h30v101.333h-30z"/><path d="m181.242 259.709h30v101.333h-30z"/><path d="m286.821 164.947c-5.584-.152-11.04.705-16.147 2.496v-92.028c0-24.43-19.579-44.842-43.645-45.501-6.215-.173-12.288.915-17.89 3.148-5.298-18.556-22.078-32.502-41.903-33.045-12.214-.337-23.795 4.175-32.558 12.699-5.864 5.706-9.966 12.71-12.037 20.384-4.735-1.921-9.856-3.04-15.198-3.187-12.193-.333-23.796 4.175-32.558 12.699-8.764 8.526-13.59 19.955-13.59 32.18v17.505c-4.295-1.557-8.882-2.461-13.646-2.591-12.2-.326-23.796 4.175-32.558 12.699-8.764 8.526-13.59 19.955-13.59 32.18v222.915c0 22.376 8.141 43.952 22.923 60.753l15.254 17.335-23.548 75.746h275.708l-22.929-82.795 40.842-40.842c13.358-13.36 20.715-31.121 20.715-50.012v-127.237c.001-24.429-19.578-44.842-43.645-45.501zm-229.948 316.387 15.544-50h17.867v12.646h30v-12.646h30.7v12.646h30v-12.646h57.57l13.847 50zm243.594-143.648c0 10.878-4.236 21.105-11.929 28.799l-34.85 34.85h-72.703v-12.646h-30v12.646h-30.7v-12.646h-30v12.646h-40.787l-2.551-2.898c-9.96-11.32-15.445-25.858-15.445-40.936v-222.915c0-4.056 1.602-7.849 4.51-10.678 2.907-2.827 6.778-4.311 10.815-4.213 7.978.219 14.468 7.178 14.468 15.513v94.515h30v-154.93c0-4.056 1.602-7.849 4.51-10.678 2.906-2.828 6.777-4.322 10.815-4.213 7.978.219 14.468 7.178 14.468 15.513v154.308h30v-184.827c0-4.056 1.602-7.849 4.51-10.678 2.906-2.828 6.762-4.328 10.815-4.213 7.978.219 14.468 7.178 14.468 15.513v184.204h30v-154.929c0-4.056 1.602-7.849 4.51-10.678 2.907-2.828 6.773-4.322 10.815-4.213 7.978.219 14.468 7.178 14.468 15.513v215.315h30v-80.903c0-4.056 1.602-7.849 4.51-10.678 2.906-2.828 6.729-4.329 10.815-4.213 7.978.219 14.468 7.178 14.468 15.513z"/></g></g></svg>