<svg id="Capa_1" enable-background="new 0 0 501.135 501.135" height="512" viewBox="0 0 501.135 501.135" width="512" xmlns="http://www.w3.org/2000/svg"><g><path d="m250.567 223.468v277.667"/><path d="m235.567 223.468h30v277.667h-30z" fill="#86c983"/><path d="m250.567 223.468h15v277.667h-15z" fill="#58b454"/><g><path d="m265.567 501.135h-30c0-69.634 56.651-126.284 126.284-126.284v30c-53.091-.001-96.284 43.193-96.284 96.284z" fill="#86c983"/></g><g><path d="m266.341 501.135h-30c0-53.091-43.193-96.284-96.284-96.284v-30c69.633-.001 126.284 56.65 126.284 126.284z" fill="#9dd39b"/></g><g><g fill="#ff5b5b"><ellipse cx="329.965" cy="128.124" rx="85.943" ry="30.272" transform="matrix(.924 -.383 .383 .924 -23.913 136.056)"/><ellipse cx="217.685" cy="240.424" rx="85.943" ry="30.272" transform="matrix(.383 -.924 .924 .383 -87.732 349.56)"/><ellipse cx="171.169" cy="193.916" rx="85.943" ry="30.272" transform="matrix(.924 -.383 .383 .924 -61.189 80.285)"/><ellipse cx="171.164" cy="128.138" rx="30.272" ry="85.943" transform="matrix(.383 -.924 .924 .383 -12.713 237.253)"/></g><path d="m91.771 226.812c-11.587-27.967 23.961-42.695 67.811-60.863s84.586-20.375 90.985-4.929z" fill="#ff3939"/><path d="m184.803 319.828c-27.969-11.582-13.247-47.132 4.913-90.986s45.404-74.218 60.851-67.822z" fill="#ff3939"/><ellipse cx="283.463" cy="240.418" fill="#ff5b5b" rx="30.272" ry="85.943" transform="matrix(.924 -.383 .383 .924 -70.437 126.809)"/><path d="m316.359 319.816c-27.967 11.587-42.695-23.961-60.863-67.811s-20.375-84.586-4.929-90.985z" fill="#ff3939"/><ellipse cx="329.971" cy="193.902" fill="#ff5b5b" rx="30.272" ry="85.943" transform="matrix(.383 -.924 .924 .383 24.575 424.579)"/><path d="m409.375 226.784c-11.582 27.969-47.132 13.247-90.986-4.913s-74.218-45.404-67.822-60.851z" fill="#ff3939"/><path d="m409.363 95.228c11.587 27.967-23.961 42.695-67.811 60.863s-84.586 20.375-90.985 4.929z" fill="#ff3939"/><ellipse cx="283.449" cy="81.616" fill="#ff5b5b" rx="85.943" ry="30.272" transform="matrix(.383 -.924 .924 .383 99.594 312.272)"/><path d="m316.331 2.213c27.969 11.582 13.247 47.132-4.913 90.986-18.16 43.853-45.404 74.218-60.851 67.822z" fill="#ff3939"/><ellipse cx="217.671" cy="81.622" fill="#ff5b5b" rx="30.272" ry="85.943" transform="matrix(.924 -.383 .383 .924 -14.666 89.533)"/><path d="m184.776 2.224c27.967-11.587 42.695 23.961 60.863 67.811s20.375 84.586 4.929 90.985z" fill="#ff3939"/><path d="m91.76 95.256c11.582-27.969 47.132-13.247 90.986 4.913s74.218 45.404 67.822 60.851z" fill="#ff3939"/><circle cx="250.567" cy="161.02" fill="#ffe477" r="40.546"/><path d="m250.567 120.474c22.393 0 40.546 18.153 40.546 40.546s-18.153 40.546-40.546 40.546z" fill="#ffda44"/></g></g></svg>