<svg id="Capa_1" enable-background="new 0 0 504.901 504.901" height="512" viewBox="0 0 504.901 504.901" width="512" xmlns="http://www.w3.org/2000/svg"><g><g><path d="m285.451 231.684c187.437 0 174.658-174.657 174.658-174.657s-174.658-12.78-174.658 174.657z" fill="#ffda44"/></g><g><g><path d="m285.451 231.684c187.437 0 174.658-174.657 174.658-174.657z" fill="#ff7037"/></g></g><path d="m391.964 312.581h120.913v30h-120.913z" fill="#c9885b" transform="matrix(.595 -.803 .803 .595 -80.144 496.015)"/><path d="m397.989 324.547h120.913v15h-120.913z" fill="#b56d3c" transform="matrix(.595 -.803 .803 .595 -81.294 502.662)"/><g><path d="m369.553 439.397c125.382-18.683 99.408-134.133 99.408-134.133s-118.109 8.869-99.408 134.133z" fill="#ffe477"/></g><g><path d="m369.553 439.397c125.382-18.683 99.408-134.133 99.408-134.133z" fill="#ffda44"/></g><path d="m99.654 12.137h30v97.368h-30z" fill="#c9885b" transform="matrix(.872 -.49 .49 .872 -15.094 63.999)"/><path d="m138.507 103.26-47.734-84.864-13.055 7.34 47.722 84.872z" fill="#b56d3c"/><g><path d="m103.69 41.323c-27.509 98.304 65.893 117.187 65.893 117.187s32.331-89.73-65.893-117.187z" fill="#ffda44"/></g><g><path d="m103.69 41.323c-27.509 98.304 65.893 117.187 65.893 117.187z" fill="#ff8859"/></g><g><g><path d="m56.625 258.51c0 252.314 235.11 235.11 235.11 235.11s17.204-235.11-235.11-235.11z" fill="#ffc477"/></g></g><g><path d="m56.625 258.51c0 252.314 235.11 235.11 235.11 235.11z" fill="#ff8859"/></g><path d="m80.744 177.226h30v240.805h-30z" fill="#c9885b" transform="matrix(.707 -.707 .707 .707 -182.412 154.874)"/><path d="m82.941 182.529h15v240.805h-15z" fill="#b56d3c" transform="matrix(.707 -.707 .707 .707 -187.715 152.678)"/><path d="m341.605 71.086h178.887v30h-178.887z" fill="#c9885b" transform="matrix(.707 -.707 .707 .707 65.379 330.012)"/><path d="m346.909 83.889h178.887v15h-178.887z" fill="#b56d3c" transform="matrix(.707 -.707 .707 .707 63.183 335.315)"/></g></svg>