<svg id="Capa_1" enable-background="new 0 0 512 512" height="512" viewBox="0 0 512 512" width="512" xmlns="http://www.w3.org/2000/svg"><g><path d="m0 323.348.158-.158c20.104-20.104 52.7-20.104 72.805 0l.158.158.158.158c20.104 20.104 52.7 20.104 72.805 0l.158-.158.158-.158c20.104-20.104 52.7-20.104 72.805 0l.158.158.158.158c20.104 20.104 52.7 20.104 72.805 0l.158-.158.158-.158c20.104-20.104 52.7-20.104 72.805 0l.158.158.158.158c20.104 20.104 52.7 20.104 72.805 0l.158-.158.158-.158c20.104-20.104 52.7-20.104 72.805 0l.316.316v188.494h-512.005z" fill="#beebfa"/><path d="m511.684 323.19c-20.104-20.104-52.7-20.104-72.805 0l-.158.158-.158.158c-20.104 20.104-52.7 20.104-72.805 0l-.158-.158-.158-.158c-20.104-20.104-52.7-20.104-72.805 0l-.158.158-.158.158c-10.032 10.031-23.173 15.056-36.322 15.076v173.418h256.001v-188.494z" fill="#9ee2f8"/><path d="m0 410.056.158-.158c20.104-20.104 52.7-20.104 72.805 0l.158.158.158.158c20.104 20.104 52.7 20.104 72.805 0l.158-.158.158-.158c20.104-20.104 52.7-20.104 72.805 0l.158.158.158.158c20.104 20.104 52.7 20.104 72.805 0l.158-.158.158-.158c20.104-20.104 52.7-20.104 72.805 0l.158.158.158.158c20.104 20.104 52.7 20.104 72.805 0l.158-.158.158-.158c20.104-20.104 52.7-20.104 72.805 0l.316.316v101.786h-512.005z" fill="#7ed8f6"/><path d="m256.002 512h255.998v-101.786l-.316-.316c-20.104-20.104-52.7-20.104-72.805 0l-.158.158-.158.158c-20.104 20.104-52.7 20.104-72.805 0l-.158-.158-.158-.158c-20.104-20.104-52.7-20.104-72.805 0l-.158.158-.158.158c-10.032 10.031-23.173 15.056-36.321 15.076z" fill="#5ecef4"/><circle cx="256" cy="128" fill="#ffb655" r="56.149"/><path d="m256 71.851c31.01 0 56.149 25.139 56.149 56.149s-25.139 56.149-56.149 56.149z" fill="#ff7037"/><g><path d="m241 0h30v41.851h-30z" fill="#ffe477"/></g><g><path d="m310.788 37.287h41.851v30h-41.851z" fill="#ffda44" transform="matrix(.707 -.707 .707 .707 60.184 249.871)"/></g><g><path d="m159.361 188.714h41.851v30h-41.851z" fill="#ffe477" transform="matrix(.707 -.707 .707 .707 -91.242 187.148)"/></g><g><path d="m128 113h41.85v30h-41.85z" fill="#ffe477"/></g><g><path d="m241 214.149h30v41.851h-30z" fill="#ffe477"/></g><g><path d="m256 0h15v41.851h-15z" fill="#ffda44"/></g><g><path d="m256 214.149h15v41.851h-15z" fill="#ffda44"/></g><g><path d="m316.714 182.788h30v41.851h-30z" fill="#ffda44" transform="matrix(.707 -.707 .707 .707 -46.891 294.223)"/></g><g><path d="m342.149 113h41.851v30h-41.851z" fill="#ffda44"/></g><g><path d="m165.287 31.361h30v41.851h-30z" fill="#ffe477" transform="matrix(.707 -.707 .707 .707 15.833 142.796)"/></g></g></svg>