<svg id="Capa_1" enable-background="new 0 0 512 512" height="512" viewBox="0 0 512 512" width="512" xmlns="http://www.w3.org/2000/svg"><g><path d="m482 417.114h-452c-16.569 0-30-13.431-30-30v-285.228c0-16.569 13.431-30 30-30h452c16.569 0 30 13.431 30 30v285.228c0 16.569-13.431 30-30 30z" fill="#beebfa"/><path d="m256 71.886h226c16.569 0 30 13.431 30 30v285.228c0 16.569-13.431 30-30 30h-226z" fill="#9ee2f8"/><path d="m206.316 407h99.367v90h-99.367z" fill="#09607d"/><path d="m256 407h49.684v90h-49.684z" fill="#04303e"/><path d="m79.867 482h352.266v30h-352.266z" fill="#0d91bd"/><path d="m256 482h176.133v30h-176.133z" fill="#09607d"/><path d="m335.5 353.38h-335.5v33.734c0 16.569 13.431 30 30 30h226z" fill="#0d91bd"/><path d="m256 417.114h226c16.569 0 30-13.431 30-30v-33.734h-256z" fill="#09607d"/><circle cx="181.879" cy="116.421" fill="#ffb655" r="116.421"/><path d="m181.879 0c64.297 0 116.421 52.123 116.421 116.421s-52.123 116.421-116.421 116.421z" fill="#ff7037"/><path d="m390.501 181.504c-2.338 0-4.638.16-6.901.438-3.239-41.71-38.085-74.555-80.627-74.555-42.549 0-77.4 32.855-80.629 74.575-2.315-.291-4.669-.459-7.063-.459-30.951 0-56.041 25.09-56.041 56.041s25.09 56.041 56.041 56.041h175.22c30.95 0 56.041-25.09 56.041-56.041s-25.09-56.04-56.041-56.04z" fill="#fff5f5"/><path d="m390.501 181.504c-2.339 0-4.638.16-6.901.438-3.239-41.711-38.085-74.555-80.627-74.555-.028 0-.055.002-.082.002v186.197h87.61c30.95 0 56.041-25.09 56.041-56.041s-25.09-56.041-56.041-56.041z" fill="#ebe1dc"/></g></svg>